TITLE ""
FILE "P1Q_t_0288-0296.mp3" MP3
  TRACK 01 AUDIO
    TITLE "P1Q_t_0288-0296_01"
    INDEX 01 00:00:00
  TRACK 02 AUDIO
    TITLE "P1Q_t_0288-0296_02"
    INDEX 01 00:01:23
  TRACK 03 AUDIO
    TITLE "P1Q_t_0288-0296_03"
    INDEX 01 00:01:45
  TRACK 04 AUDIO
    TITLE "P1Q_t_0288-0296_04"
    INDEX 01 00:05:68
  TRACK 05 AUDIO
    TITLE "P1Q_t_0288-0296_05"
    INDEX 01 00:06:13
  TRACK 06 AUDIO
    TITLE "P1Q_t_0288-0296_06"
    INDEX 01 00:10:50
  TRACK 07 AUDIO
    TITLE "P1Q_t_0288-0296_07"
    INDEX 01 00:11:20
  TRACK 08 AUDIO
    TITLE "P1Q_t_0288-0296_08"
    INDEX 01 00:12:25
  TRACK 09 AUDIO
    TITLE "P1Q_t_0288-0296_09"
    INDEX 01 00:12:70
  TRACK 10 AUDIO
    TITLE "P1Q_t_0288-0296_10"
    INDEX 01 00:14:24
  TRACK 11 AUDIO
    TITLE "P1Q_t_0288-0296_11"
    INDEX 01 00:14:48
  TRACK 12 AUDIO
    TITLE "P1Q_t_0288-0296_12"
    INDEX 01 00:17:05
  TRACK 13 AUDIO
    TITLE "P1Q_t_0288-0296_13"
    INDEX 01 00:17:24
  TRACK 14 AUDIO
    TITLE "P1Q_t_0288-0296_14"
    INDEX 01 00:21:20
  TRACK 15 AUDIO
    TITLE "P1Q_t_0288-0296_15"
    INDEX 01 00:21:71
  TRACK 16 AUDIO
    TITLE "P1Q_t_0288-0296_16"
    INDEX 01 00:23:29
  TRACK 17 AUDIO
    TITLE "P1Q_t_0288-0296_17"
    INDEX 01 00:23:51
  TRACK 18 AUDIO
    TITLE "P1Q_t_0288-0296_18"
    INDEX 01 00:26:74
  TRACK 19 AUDIO
    TITLE "P1Q_t_0288-0296_19"
    INDEX 01 00:27:19
  TRACK 20 AUDIO
    TITLE "P1Q_t_0288-0296_20"
    INDEX 01 00:31:62
  TRACK 21 AUDIO
    TITLE "P1Q_t_0288-0296_21"
    INDEX 01 00:32:34
  TRACK 22 AUDIO
    TITLE "P1Q_t_0288-0296_22"
    INDEX 01 00:33:63
  TRACK 23 AUDIO
    TITLE "P1Q_t_0288-0296_23"
    INDEX 01 00:34:09
  TRACK 24 AUDIO
    TITLE "P1Q_t_0288-0296_24"
    INDEX 01 00:35:18
  TRACK 25 AUDIO
    TITLE "P1Q_t_0288-0296_25"
    INDEX 01 00:35:38
  TRACK 26 AUDIO
    TITLE "P1Q_t_0288-0296_26"
    INDEX 01 00:40:59
  TRACK 27 AUDIO
    TITLE "P1Q_t_0288-0296_27"
    INDEX 01 00:41:29
  TRACK 28 AUDIO
    TITLE "P1Q_t_0288-0296_28"
    INDEX 01 00:42:56
  TRACK 29 AUDIO
    TITLE "P1Q_t_0288-0296_29"
    INDEX 01 00:43:02
  TRACK 30 AUDIO
    TITLE "P1Q_t_0288-0296_30"
    INDEX 01 00:45:72
  TRACK 31 AUDIO
    TITLE "P1Q_t_0288-0296_31"
    INDEX 01 00:46:16
  TRACK 32 AUDIO
    TITLE "P1Q_t_0288-0296_32"
    INDEX 01 00:51:35
  TRACK 33 AUDIO
    TITLE "P1Q_t_0288-0296_33"
    INDEX 01 00:52:07
  TRACK 34 AUDIO
    TITLE "P1Q_t_0288-0296_34"
    INDEX 01 00:53:38
  TRACK 35 AUDIO
    TITLE "P1Q_t_0288-0296_35"
    INDEX 01 00:53:59
  TRACK 36 AUDIO
    TITLE "P1Q_t_0288-0296_36"
    INDEX 01 00:56:60
  TRACK 37 AUDIO
    TITLE "P1Q_t_0288-0296_37"
    INDEX 01 00:57:04
  TRACK 38 AUDIO
    TITLE "P1Q_t_0288-0296_38"
    INDEX 01 01:02:27
  TRACK 39 AUDIO
    TITLE "P1Q_t_0288-0296_39"
    INDEX 01 01:03:01
  TRACK 40 AUDIO
    TITLE "P1Q_t_0288-0296_40"
    INDEX 01 01:04:24
  TRACK 41 AUDIO
    TITLE "P1Q_t_0288-0296_41"
    INDEX 01 01:04:44
  TRACK 42 AUDIO
    TITLE "P1Q_t_0288-0296_42"
    INDEX 01 01:06:48
  TRACK 43 AUDIO
    TITLE "P1Q_t_0288-0296_43"
    INDEX 01 01:06:72
  TRACK 44 AUDIO
    TITLE "P1Q_t_0288-0296_44"
    INDEX 01 01:12:55
  TRACK 45 AUDIO
    TITLE "P1Q_t_0288-0296_45"
    INDEX 01 01:13:27
  TRACK 46 AUDIO
    TITLE "P1Q_t_0288-0296_46"
    INDEX 01 01:14:40
  TRACK 47 AUDIO
    TITLE "P1Q_t_0288-0296_47"
    INDEX 01 01:14:62
  TRACK 48 AUDIO
    TITLE "P1Q_t_0288-0296_48"
    INDEX 01 01:18:38
  TRACK 49 AUDIO
    TITLE "P1Q_t_0288-0296_49"
    INDEX 01 01:18:59
  TRACK 50 AUDIO
    TITLE "P1Q_t_0288-0296_50"
    INDEX 01 01:23:17
  TRACK 51 AUDIO
    TITLE "P1Q_t_0288-0296_51"
    INDEX 01 01:23:63
  TRACK 52 AUDIO
    TITLE "P1Q_t_0288-0296_52"
    INDEX 01 01:24:74
  TRACK 53 AUDIO
    TITLE "P1Q_t_0288-0296_53"
    INDEX 01 01:25:22
  TRACK 54 AUDIO
    TITLE "P1Q_t_0288-0296_54"
    INDEX 01 01:28:34
  TRACK 55 AUDIO
    TITLE "P1Q_t_0288-0296_55"
    INDEX 01 01:28:54
  TRACK 56 AUDIO
    TITLE "P1Q_t_0288-0296_56"
    INDEX 01 01:33:14
